<?xml version="1.0" standalone="no"?><svg xmlns="http://www.w3.org/2000/svg" viewBox="0 0 1440 320"><path fill="#FFB4BC" fill-opacity="1" d="M0,32L30,80C60,128,120,224,180,234.7C240,245,300,171,360,138.7C420,107,480,117,540,133.3C600,149,660,171,720,149.3C780,128,840,64,900,80C960,96,1020,192,1080,202.7C1140,213,1200,139,1260,117.3C1320,96,1380,128,1410,144L1440,160L1440,0L1410,0C1380,0,1320,0,1260,0C1200,0,1140,0,1080,0C1020,0,960,0,900,0C840,0,780,0,720,0C660,0,600,0,540,0C480,0,420,0,360,0C300,0,240,0,180,0C120,0,60,0,30,0L0,0Z"></path></svg>